# xmcd
#
# Track frame offsets: 
#        150
#        17780
#        34214
#        53864
#        68004
#        85777
#        104893
#        126385
#        144274
#        162277
#        178157
#        191786
#        209573
#        225341
#        241812
#        262010
#        283512
#        300428
#
# Disc length: 4299 seconds
#
# Revision: 0
# Processed by: cddbd v1.5.2PL0 Copyright (c) Steve Scherf et al.
# Submitted via: ExactAudioCopy v0.95b4
#
DISCID=0410c912
DTITLE=Various Artist - Don´s Black Vol 16
DYEAR=1900
DGENRE=
TTITLE0=E17 - Each time
TTITLE1=WES - Alane
TTITLE2=Der Wolf - Dumm gelaufen
TTITLE3=Mobbs4real - Missing you
TTITLE4=Blacjstreet feat. Mya - Take me there
TTITLE5=Dr. Dre and LL Cool J - Zoom
TTITLE6=Ebony - Good life
TTITLE7=2-4 Family - Lean on me
TTITLE8=TLC - No scrubbs
TTITLE9=Basis - Ich will euer Leben nicht
TTITLE10=Tic Tac Two and Sara - Nie wieder
TTITLE11=Cappuccino - Regenbogen
TTITLE12=Britney Spears - Baby one more time
TTITLE13=Spike - Respekt
TTITLE14=2Pac - Changes
TTITLE15=George Michael and Mary J Blidge - As
TTITLE16=TQ - Westside
TTITLE17=Modern Talking - You are not alone
EXTD=
EXTT0=
EXTT1=
EXTT2=
EXTT3=
EXTT4=
EXTT5=
EXTT6=
EXTT7=
EXTT8=
EXTT9=
EXTT10=
EXTT11=
EXTT12=
EXTT13=
EXTT14=
EXTT15=
EXTT16=
EXTT17=
PLAYORDER=
